Coordinates
version=1
nRows=21
nColumns=12
inDegrees=yes

Units are S.I. units (second, meters, Newtons, ...)
Angles are in degrees

endheader
time	SC_y	SC_z	SC_x	AC_y	AC_z	AC_x	GH_y	GH_z	GH_yy	EL_x	PS_y
       0.0              -38.02          21.96          22.12          69.02         -11.38          11.43         -141.2          33.58         -81.06          110.9          158.1
    0.0395              -38.02          21.96          22.12          69.02         -11.38          11.43         -141.2          33.57         -81.05          110.9          158.0
   0.07899              -38.01          21.97          22.11          69.01         -11.38          11.42         -141.2          33.56         -81.05          110.9          158.0
    0.1185              -38.01          21.97          22.11          69.01         -11.38          11.42         -141.1          33.56         -81.05          110.9          158.0
     0.158              -38.01          21.97          22.11          69.01         -11.38          11.41         -141.1          33.55         -81.05          110.9          158.0
    0.1975              -38.01          21.97          22.11           69.0         -11.38          11.41         -141.1          33.54         -81.05          110.9          157.9
     0.237               -38.0          21.98          22.11           69.0         -11.38           11.4         -141.0          33.53         -81.04          110.9          157.9
    0.2765               -38.0          21.98          22.11          68.99         -11.37           11.4         -141.0          33.51         -81.04          110.9          157.9
     0.316               -38.0          21.98          22.11          68.98         -11.37          11.39         -141.0           33.5         -81.04          110.9          157.9
    0.3555               -38.0          21.99           22.1          68.98         -11.37          11.39         -140.9          33.49         -81.04          110.9          157.8
     0.395              -37.99          21.99           22.1          68.97         -11.37          11.38         -140.9          33.47         -81.03          110.9          157.8
    0.4345              -37.99           22.0           22.1          68.96         -11.37          11.37         -140.8          33.46         -81.03          110.9          157.7
     0.474              -37.98           22.0           22.1          68.95         -11.37          11.36         -140.8          33.44         -81.03          110.8          157.7
    0.5135              -37.98          22.01          22.09          68.94         -11.36          11.35         -140.7          33.43         -81.02          110.8          157.7
     0.553              -37.98          22.01          22.09          68.94         -11.36          11.34         -140.7          33.41         -81.02          110.8          157.6
    0.5925              -37.97          22.02          22.09          68.92         -11.36          11.33         -140.6          33.39         -81.02          110.8          157.5
    0.6319              -37.97          22.03          22.08          68.91         -11.35          11.32         -140.5          33.36         -81.01          110.8          157.5
    0.6714              -37.96          22.03          22.08           68.9         -11.35          11.31         -140.4          33.34         -81.01          110.8          157.4
    0.7109              -37.95          22.04          22.08          68.89         -11.35           11.3         -140.3          33.31          -81.0          110.8          157.4
    0.7504              -37.95          22.05          22.07          68.87         -11.34          11.28         -140.3          33.28          -81.0          110.8          157.3
    0.7899              -37.94          22.06          22.07          68.86         -11.34          11.27         -140.2          33.25         -80.99          110.8          157.2
